<svg width="1230" height="391" fill="none" xmlns="http://www.w3.org/2000/svg"><path d="M354.113 76.912C380.582 60.682 398.289 30.996 400 0c-12.577 17.988-36.947 23.377-58.879 22.808-21.938-.57-43.936-5.598-65.653-2.462-17.066 2.466-34.61 12.056-42.436 26.637-1.663 3.112-6.396 3.112-8.064 0-7.826-14.585-25.365-24.18-42.436-26.637-21.727-3.141-43.717 1.898-65.653 2.462C94.942 23.372 70.572 17.984 58 0c1.711 30.996 19.422 60.678 45.887 76.912 28.309 17.358 67.011 22.196 80.004 56.901 5.354 14.304 6.142 29.878 6.004 45.155-.082 9.346-.569 26.297-3.151 41.203-2.246 12.974 7.687 24.829 20.852 24.829h42.818c13.165 0 23.103-11.855 20.852-24.829-2.582-14.906-3.069-31.847-3.151-41.203-.138-15.269.65-30.852 6.004-45.155 12.983-34.7 51.685-39.534 79.995-56.9h-.001Z" fill="#CEA7A7"/><path d="M367.813 242.56c0-27.088-22.786-51.713-60.948-65.855-5.781-2.156-12.255.797-14.396 6.61-2.151 5.802.808 12.244 6.61 14.396 28.584 10.593 46.338 27.781 46.338 44.86 0 30.114-50.588 55.552-110.469 55.552-59.88 0-110.469-25.438-110.469-55.552 0-7.782 3.458-15.427 10.281-22.735 4.219-4.526 3.974-11.609-.547-15.828-4.516-4.214-11.62-3.974-15.828.547-10.672 11.432-16.307 24.578-16.307 38.021 0 43.708 58.36 77.953 132.87 77.953 74.505-.01 132.864-34.254 132.864-77.969h.001Z" fill="#ECAD64"/><path d="M36.13 200.744c2.786 0 5.578-1.031 7.75-3.115 18.458-17.682 45.218-32.749 77.385-43.562 5.859-1.969 9.021-8.323 7.047-14.188-1.969-5.86-8.323-9.021-14.177-7.047-35.287 11.859-64.932 28.672-85.755 48.625-4.464 4.276-4.615 11.365-.339 15.839a11.19 11.19 0 0 0 8.089 3.448ZM110.556 349.264c-45.448-17.287-77.062-42.453-89.026-70.875-2.396-5.698-8.933-8.375-14.672-5.979-5.703 2.396-8.375 8.969-5.98 14.667 14.36 34.125 50.484 63.645 101.708 83.125 1.313.5 2.652.74 3.98.74 4.51 0 8.77-2.755 10.468-7.219 2.204-5.797-.697-12.266-6.479-14.459h.001ZM372.631 358.881c-1.823-5.901-8.094-9.208-14.016-7.375-34.042 10.568-72.891 16.151-112.339 16.151-6.182 0-11.198 5.01-11.198 11.197 0 6.188 5.016 11.198 11.198 11.198 41.672 0 82.812-5.927 118.973-17.156 5.917-1.828 9.209-8.099 7.381-14.016l.001.001ZM403.041 154.592c-5.292-3.172-12.177-1.458-15.364 3.844-3.187 5.302-1.458 12.187 3.844 15.364 31.271 18.749 50.297 41.464 55.041 65.682 1.047 5.344 5.735 9.053 10.974 9.053.719 0 1.433-.068 2.167-.209 6.073-1.187 10.026-7.073 8.838-13.14-5.989-30.62-28.645-58.49-65.5-80.594Z" fill="#AB5151"/><path d="m659.333 262.973.384-.245-.209-.405-12.423-24.089-.237-.458-.451.251c-6.773 3.774-14.095 5.661-21.975 5.661-6.318 0-10.782-1.344-13.513-3.919-2.722-2.566-4.144-6.851-4.144-12.992v-56.978H643.727l.063-.427 3.823-25.997.084-.572h-40.932V110.78l-.559.067-37.747 4.532-.441.053V142.803H541.5v26.996h26.518v56.978c0 15.038 4.089 26.785 12.328 35.171l.003.004c8.408 8.393 20.819 12.548 37.145 12.548 15.852 0 29.804-3.838 41.839-11.527Zm144.412-14.102.145-.456-.449-.165c-2.945-1.083-4.987-2.688-6.189-4.788-1.209-2.111-1.845-5.423-1.845-10.007v-49.608c0-15.054-4.658-26.425-14.042-34.017-9.364-7.575-23.354-11.32-41.884-11.32-7.206 0-15.28.879-24.222 2.632-8.787 1.595-17.256 3.908-25.406 6.939l-.457.17.159.461 8.6 25.042.162.472.473-.161a122.59 122.59 0 0 1 18.559-4.75l.009-.002c6.514-1.269 11.894-1.899 16.15-1.899 8.311 0 14.452 1.622 18.507 4.784 4.031 3.143 6.078 7.869 6.078 14.273v4.031h-16.462c-19.645 0-34.97 3.825-45.917 11.538-10.97 7.571-16.459 18.301-16.459 32.131 0 11.889 3.948 21.643 11.86 29.219l.004.004c7.917 7.419 18.481 11.106 31.639 11.106 8.34 0 16.207-1.441 23.594-4.327l.009-.004c7.159-2.952 13.124-7.113 17.883-12.485 2.884 4.873 6.818 8.633 11.794 11.272l.011.006c5.165 2.578 11.599 4.259 19.284 5.058l.405.042.123-.388 7.884-24.803Zm65.731-135.027.007.007.007.006c4.404 4.071 9.945 6.096 16.585 6.096 6.64 0 12.106-2.025 16.353-6.102 4.248-4.077 6.365-9.3 6.365-15.625 0-6.168-2.119-11.308-6.361-15.382-4.246-4.237-9.713-6.344-16.357-6.344-6.646 0-12.189 2.108-16.592 6.34-4.245 4.075-6.365 9.216-6.365 15.386s2.12 11.387 6.358 15.618Zm72.286 130.344v-.5h-32.491V142.803h-73.388v26.758h34.641v74.127h-35.836v26.758h107.074v-26.258Zm133.908-3.981-.18-.498-.49.2c-6.15 2.523-12.14 3.779-17.96 3.779-5.36 0-9.28-1.161-11.86-3.396-2.57-2.223-3.89-5.583-3.89-10.176V92.479h-76.014v26.758h37.274v106.109c0 15.498 3.68 27.633 11.1 36.338l.01.008c7.61 8.564 18.91 12.808 33.82 12.808 14.24 0 26.51-2.796 36.79-8.409l.38-.203-.14-.4-8.84-25.281Zm152.33.38h-69.4c16.89-15.042 29.95-27.643 39.19-37.8 9.57-10.513 16.46-20.013 20.62-28.497 4.18-8.494 6.27-17.314 6.27-26.456 0-8.675-2.26-16.635-6.76-23.87-4.36-7.405-10.89-13.27-19.56-17.599-8.69-4.335-19.12-6.492-31.28-6.492-12.81 0-23.88 2.477-33.2 7.452l-.01.002c-9.15 4.968-17.01 12.016-23.58 21.135l-.28.396.39.294 22.93 17.411.4.302.3-.398c4.43-5.848 8.92-10.005 13.46-12.505l.01-.006c4.53-2.652 9.86-3.986 16-3.986 7.08 0 12.43 1.883 16.13 5.578 3.7 3.698 5.58 8.884 5.58 15.625 0 6.403-2.19 13.311-6.61 20.732l-.01.003c-4.27 7.27-11.25 16.224-20.96 26.866-9.7 10.484-24.35 25.183-43.93 44.1l-.16.147v27.425H1224.37l.06-.431 4.07-28.858.08-.57h-.58Zm-479.686 2.45c-4.236 2.348-8.453 3.513-12.656 3.513-5.331 0-9.416-1.329-12.324-3.923-2.739-2.586-4.138-6.255-4.138-11.08 0-6.199 2.47-10.803 7.41-13.886 4.979-3.106 12.513-4.694 22.67-4.694h8.817v20.127c-2.182 4.151-5.437 7.465-9.779 9.943Z" fill="#C0F3C8" stroke="#000"/></svg>