<svg xmlns="http://www.w3.org/2000/svg" width="469" height="391" fill="none" viewBox="0 0 469 391">
  <path fill="#CEA7A7" d="M354.113 76.912C380.582 60.682 398.289 30.996 400 0c-12.577 17.988-36.947 23.377-58.879 22.808-21.938-.57-43.936-5.598-65.653-2.462-17.066 2.466-34.61 12.056-42.436 26.637-1.663 3.112-6.396 3.112-8.064 0-7.826-14.585-25.365-24.18-42.436-26.637-21.727-3.141-43.717 1.898-65.653 2.462C94.942 23.372 70.572 17.984 58 0c1.711 30.996 19.422 60.678 45.887 76.912 28.309 17.358 67.011 22.196 80.004 56.901 5.354 14.304 6.142 29.878 6.004 45.155-.082 9.346-.569 26.297-3.151 41.203-2.246 12.974 7.687 24.829 20.852 24.829h42.818c13.165 0 23.103-11.855 20.852-24.829-2.582-14.906-3.069-31.847-3.151-41.203-.138-15.269.65-30.852 6.004-45.155 12.983-34.7 51.685-39.534 79.995-56.9h-.001Z"/>
  <path fill="#ECAD64" d="M367.813 242.56c0-27.088-22.786-51.713-60.948-65.855-5.781-2.156-12.255.797-14.396 6.61-2.151 5.802.808 12.244 6.61 14.396 28.584 10.593 46.338 27.781 46.338 44.86 0 30.114-50.588 55.552-110.469 55.552-59.88 0-110.469-25.438-110.469-55.552 0-7.782 3.458-15.427 10.281-22.735 4.219-4.526 3.974-11.609-.547-15.828-4.516-4.214-11.62-3.974-15.828.547-10.672 11.432-16.307 24.578-16.307 38.021 0 43.708 58.36 77.953 132.87 77.953 74.505-.01 132.864-34.254 132.864-77.969h.001Z"/>
  <path fill="#AB5151" d="M36.13 200.744c2.786 0 5.578-1.031 7.75-3.115 18.458-17.682 45.218-32.749 77.385-43.562 5.859-1.969 9.021-8.323 7.047-14.188-1.969-5.86-8.323-9.021-14.177-7.047-35.287 11.859-64.932 28.672-85.755 48.625-4.464 4.276-4.615 11.365-.339 15.839a11.19 11.19 0 0 0 8.089 3.448Zm74.426 148.52c-45.448-17.287-77.062-42.453-89.026-70.875-2.396-5.698-8.933-8.375-14.672-5.979-5.703 2.396-8.375 8.969-5.98 14.667 14.36 34.125 50.484 63.645 101.708 83.125 1.313.5 2.652.74 3.98.74 4.51 0 8.77-2.755 10.468-7.219 2.204-5.797-.697-12.266-6.479-14.459h.001Zm262.075 9.617c-1.823-5.901-8.094-9.208-14.016-7.375-34.042 10.568-72.891 16.151-112.339 16.151-6.182 0-11.198 5.01-11.198 11.197 0 6.188 5.016 11.198 11.198 11.198 41.672 0 82.812-5.927 118.973-17.156 5.917-1.828 9.209-8.099 7.381-14.016l.001.001Zm30.41-204.289c-5.292-3.172-12.177-1.458-15.364 3.844-3.187 5.302-1.458 12.187 3.844 15.364 31.271 18.749 50.297 41.464 55.041 65.682 1.047 5.344 5.735 9.053 10.974 9.053.719 0 1.433-.068 2.167-.209 6.073-1.187 10.026-7.073 8.838-13.14-5.989-30.62-28.645-58.49-65.5-80.594Z"/>
</svg>
