<svg width="1230" height="391" viewBox="0 0 1230 391" fill="none" xmlns="http://www.w3.org/2000/svg">
<path d="M354.113 76.9123C380.582 60.6825 398.289 30.996 400 0C387.423 17.9884 363.053 23.3767 341.121 22.8076C319.183 22.2388 297.185 17.2098 275.468 20.3458C258.402 22.8124 240.858 32.402 233.032 46.9826C231.369 50.0947 226.636 50.0947 224.968 46.9826C217.142 32.3976 199.603 22.8031 182.532 20.3458C160.805 17.205 138.815 22.2436 116.879 22.8076C94.942 23.3717 70.5718 17.9842 58 0C59.7113 30.996 77.4225 60.6776 103.887 76.9123C132.196 94.2704 170.898 99.108 183.891 133.813C189.245 148.117 190.033 163.691 189.895 178.968C189.813 188.314 189.326 205.265 186.744 220.171C184.498 233.145 194.431 245 207.596 245H250.414C263.579 245 273.517 233.145 271.266 220.171C268.684 205.265 268.197 188.324 268.115 178.968C267.977 163.699 268.765 148.116 274.119 133.813C287.102 99.1129 325.804 94.279 354.114 76.9123H354.113Z" fill="#CEA7A7"/>
<path d="M367.813 242.56C367.813 215.472 345.027 190.847 306.865 176.705C301.084 174.549 294.61 177.502 292.469 183.315C290.318 189.117 293.277 195.559 299.079 197.711C327.663 208.304 345.417 225.492 345.417 242.571C345.417 272.685 294.829 298.123 234.948 298.123C175.068 298.123 124.479 272.685 124.479 242.571C124.479 234.789 127.937 227.144 134.76 219.836C138.979 215.31 138.734 208.227 134.213 204.008C129.697 199.794 122.593 200.034 118.385 204.555C107.713 215.987 102.078 229.133 102.078 242.576C102.078 286.284 160.438 320.529 234.948 320.529C309.453 320.519 367.812 286.275 367.812 242.56L367.813 242.56Z" fill="#ECAD64"/>
<path d="M36.1297 200.744C38.9161 200.744 41.7078 199.713 43.8797 197.629C62.3383 179.947 89.0983 164.88 121.265 154.067C127.124 152.098 130.286 145.744 128.312 139.879C126.343 134.019 119.989 130.858 114.135 132.832C78.8479 144.691 49.2026 161.504 28.3799 181.457C23.9163 185.733 23.7654 192.822 28.0414 197.296C30.2496 199.588 33.182 200.744 36.1299 200.744L36.1297 200.744Z" fill="#AB5151"/>
<path d="M110.556 349.264C65.1083 331.977 33.4936 306.811 21.5296 278.389C19.1338 272.691 12.5974 270.014 6.85765 272.41C1.15459 274.806 -1.51727 281.379 0.878465 287.077C15.2385 321.202 51.3625 350.722 102.586 370.202C103.899 370.702 105.238 370.942 106.566 370.942C111.076 370.942 115.336 368.187 117.034 363.723C119.238 357.926 116.337 351.457 110.555 349.264L110.556 349.264Z" fill="#AB5151"/>
<path d="M372.631 358.881C370.808 352.98 364.537 349.673 358.615 351.506C324.573 362.074 285.724 367.657 246.276 367.657C240.094 367.657 235.078 372.667 235.078 378.854C235.078 385.042 240.094 390.052 246.276 390.052C287.948 390.052 329.088 384.125 365.249 372.896C371.166 371.068 374.458 364.797 372.63 358.88L372.631 358.881Z" fill="#AB5151"/>
<path d="M403.041 154.592C397.749 151.42 390.864 153.134 387.677 158.436C384.49 163.738 386.219 170.623 391.521 173.8C422.792 192.549 441.818 215.264 446.562 239.482C447.609 244.826 452.297 248.535 457.536 248.535C458.255 248.535 458.969 248.467 459.703 248.326C465.776 247.139 469.729 241.253 468.541 235.186C462.552 204.566 439.896 176.696 403.041 154.592L403.041 154.592Z" fill="#AB5151"/>
<path d="M659.333 262.973L659.717 262.728L659.508 262.323L647.085 238.234L646.848 237.776L646.397 238.027C639.624 241.801 632.302 243.688 624.422 243.688C618.104 243.688 613.64 242.344 610.909 239.769C608.187 237.203 606.765 232.918 606.765 226.777V169.799H643.296H643.727L643.79 169.372L647.613 143.375L647.697 142.803H647.118H606.765V111.344V110.78L606.206 110.847L568.459 115.379L568.018 115.432V115.875V142.803H542H541.5V143.303V169.299V169.799H542H568.018V226.777C568.018 241.815 572.107 253.562 580.346 261.948L580.349 261.952C588.757 270.345 601.168 274.5 617.494 274.5C633.346 274.5 647.298 270.662 659.333 262.973ZM803.745 248.871L803.89 248.415L803.441 248.25C800.496 247.167 798.454 245.562 797.252 243.462C796.043 241.351 795.407 238.039 795.407 233.455V183.847C795.407 168.793 790.749 157.422 781.365 149.83C772.001 142.255 758.011 138.51 739.481 138.51C732.275 138.51 724.201 139.389 715.259 141.142C706.472 142.737 698.003 145.05 689.853 148.081L689.396 148.251L689.555 148.712L698.155 173.754L698.317 174.226L698.79 174.065C704.817 172.007 711.003 170.423 717.349 169.315L717.358 169.313C723.872 168.044 729.252 167.414 733.508 167.414C741.819 167.414 747.96 169.036 752.015 172.198C756.046 175.341 758.093 180.067 758.093 186.471V190.502H741.631C721.986 190.502 706.661 194.327 695.714 202.04C684.744 209.611 679.255 220.341 679.255 234.171C679.255 246.06 683.203 255.814 691.115 263.39L691.119 263.394C699.036 270.813 709.6 274.5 722.758 274.5C731.098 274.5 738.965 273.059 746.352 270.173L746.361 270.169C753.52 267.217 759.485 263.056 764.244 257.684C767.128 262.557 771.062 266.317 776.038 268.956L776.038 268.956L776.049 268.962C781.214 271.54 787.648 273.221 795.333 274.02L795.738 274.062L795.861 273.674L803.745 248.871ZM869.476 113.844L869.483 113.851L869.49 113.857C873.894 117.928 879.435 119.953 886.075 119.953C892.715 119.953 898.181 117.928 902.428 113.851C906.676 109.774 908.793 104.551 908.793 98.2264C908.793 92.0582 906.674 86.9182 902.432 82.8441C898.186 78.6073 892.719 76.5 886.075 76.5C879.429 76.5 873.886 78.608 869.483 82.8402C865.238 86.9149 863.118 92.0563 863.118 98.2264C863.118 104.396 865.238 109.613 869.476 113.844ZM941.762 244.188V243.688H941.262H909.271V143.303V142.803H908.771H836.383H835.883V143.303V169.061V169.561H836.383H870.524V243.688H835.188H834.688V244.188V269.946V270.446H835.188H941.262H941.762V269.946V244.188ZM1075.67 240.207L1075.49 239.709L1075 239.909C1068.85 242.432 1062.86 243.688 1057.04 243.688C1051.68 243.688 1047.76 242.527 1045.18 240.292C1042.61 238.069 1041.29 234.709 1041.29 230.116V92.9794V92.4794H1040.79H965.776H965.276V92.9794V118.737V119.237H965.776H1002.55V225.346C1002.55 240.844 1006.23 252.979 1013.65 261.684L1013.66 261.692C1021.27 270.256 1032.57 274.5 1047.48 274.5C1061.72 274.5 1073.99 271.704 1084.27 266.091L1084.65 265.888L1084.51 265.488L1075.67 240.207ZM1228 240.587H1158.6C1175.49 225.545 1188.55 212.944 1197.79 202.787C1207.36 192.274 1214.25 182.774 1218.41 174.29C1222.59 165.796 1224.68 156.976 1224.68 147.834C1224.68 139.159 1222.42 131.199 1217.92 123.964C1213.56 116.559 1207.03 110.694 1198.36 106.365C1189.67 102.03 1179.24 99.8729 1167.08 99.8729C1154.27 99.8729 1143.2 102.35 1133.88 107.325L1133.87 107.327C1124.72 112.295 1116.86 119.343 1110.29 128.462L1110.01 128.858L1110.4 129.152L1133.33 146.563L1133.73 146.865L1134.03 146.467C1138.46 140.619 1142.95 136.462 1147.49 133.962L1147.5 133.956C1152.03 131.304 1157.36 129.97 1163.5 129.97C1170.58 129.97 1175.93 131.853 1179.63 135.548C1183.33 139.246 1185.21 144.432 1185.21 151.173C1185.21 157.576 1183.02 164.484 1178.6 171.905L1178.59 171.908C1174.32 179.178 1167.34 188.132 1157.63 198.774C1147.93 209.258 1133.28 223.957 1113.7 242.874L1113.54 243.021V243.234V269.946V270.446H1114.04H1223.94H1224.37L1224.43 270.015L1228.5 241.157L1228.58 240.587H1228ZM748.314 243.037C744.078 245.385 739.861 246.55 735.658 246.55C730.327 246.55 726.242 245.221 723.334 242.627C720.595 240.041 719.196 236.372 719.196 231.547C719.196 225.348 721.666 220.744 726.606 217.661C731.585 214.555 739.119 212.967 749.276 212.967H758.093V233.094C755.911 237.245 752.656 240.559 748.314 243.037Z" fill="#C0F3C8" stroke="black"/>
</svg>
